<svg enable-background="new 0 0 512.001 512.001" viewBox="0 0 512.001 512.001" xmlns="http://www.w3.org/2000/svg"><path d="m8.004 231.816s9 53.5 31 87.999l365.663-1.333c97.333-36.666 99.333-126.666 99.333-126.666-175.999 72-495.996 40-495.996 40z" fill="#aa785f"/><path d="m15.749 264.52c5.01 17.407 12.576 38.55 23.254 55.295l365.663-1.333c57.878-21.803 81.992-62.418 92.076-91.8-160.882 61.912-431.952 42.068-480.993 37.838z" fill="#96695a"/><path d="m78.327 236.615c-28.144-1.355-49.573-2.991-61.014-3.96-4.749-.402-8.46 3.877-7.457 8.537 3.634 16.875 12.804 52.993 29.148 78.624l119.578-.436c-38.647-23.751-64.625-57.168-80.255-82.765z" fill="#96695a"/><path d="m101.896 269.598c-41.223-1.496-72.422-3.895-86.147-5.078 5.01 17.407 12.576 38.55 23.254 55.295l119.578-.436c-23.356-14.353-42.082-32.214-56.685-49.781z" fill="#825a50"/><path d="m203.939 273.215c-6.14-4.585-15.014-2.594-19.468 3.642l-15.579 21.81c-1.646 2.305-1.1 5.51 1.217 7.139l8.19 5.758c1.889 1.328 4.435 1.222 6.206-.259l19.29-16.126c7.366-5.261 7.722-16.306.144-21.964z" fill="#825a50"/><path d="m463.996 335.755c-.487.012-.853.061-1.383.061-7.359 0-10.375-1.164-14.93-2.922-5.844-2.262-13.125-5.078-26.461-5.078-13.328 0-20.609 2.816-26.453 5.078-4.547 1.758-7.555 2.922-14.898 2.922-7.344 0-10.344-1.16-14.891-2.922-5.844-2.262-13.117-5.078-26.437-5.078s-20.601 2.816-26.445 5.078c-4.547 1.758-7.547 2.922-14.898 2.922-7.344 0-10.344-1.16-14.891-2.922-5.844-2.262-13.117-5.078-26.437-5.078-13.328 0-20.601 2.816-26.445 5.078-4.547 1.762-7.547 2.922-14.891 2.922s-10.344-1.16-14.891-2.922c-5.844-2.262-13.117-5.078-26.437-5.078s-20.594 2.816-26.445 5.082c-4.539 1.758-7.539 2.918-14.875 2.918-7.328 0-10.32-1.16-14.859-2.918-5.844-2.266-13.109-5.082-26.43-5.082s-20.594 2.816-26.445 5.082c-4.539 1.758-7.539 2.918-14.875 2.918-.492 0-.827-.046-1.281-.056v8.124c0 14.215 14.273 24.054 27.529 18.924.061-.023.121-.047.181-.07 4.547-1.762 7.547-2.922 14.891-2.922 7.336 0 10.328 1.16 14.867 2.918 5.844 2.266 13.109 5.082 26.422 5.082 13.32 0 20.586-2.816 26.43-5.078 4.547-1.762 7.547-2.922 14.891-2.922s10.344 1.16 14.891 2.922c5.844 2.262 13.117 5.078 26.437 5.078s20.594-2.816 26.437-5.078c4.547-1.758 7.547-2.922 14.898-2.922 7.344 0 10.344 1.16 14.891 2.922 5.844 2.262 13.117 5.078 26.437 5.078s20.601-2.816 26.445-5.078c4.547-1.758 7.547-2.922 14.898-2.922 7.344 0 10.344 1.16 14.891 2.922 5.844 2.262 13.117 5.078 26.437 5.078s20.601-2.816 26.445-5.078c4.547-1.758 7.555-2.922 14.906-2.922 7.359 0 10.375 1.164 14.93 2.922.104.04.208.081.313.121 13.257 5.127 27.531-4.711 27.531-18.924z" fill="#7fe1ff"/><path d="m462.613 343.815c-13.336 0-20.617-2.816-26.461-5.078-4.555-1.758-7.57-2.922-14.93-2.922-7.352 0-10.359 1.164-14.906 2.922-5.844 2.262-13.125 5.078-26.445 5.078s-20.594-2.816-26.437-5.078c-4.547-1.762-7.547-2.922-14.891-2.922-7.352 0-10.352 1.164-14.898 2.922-5.844 2.262-13.125 5.078-26.445 5.078s-20.594-2.816-26.437-5.078c-4.547-1.762-7.547-2.922-14.891-2.922-7.352 0-10.351 1.164-14.898 2.922-5.844 2.262-13.117 5.078-26.437 5.078s-20.594-2.816-26.437-5.078c-4.547-1.762-7.547-2.922-14.891-2.922s-10.344 1.16-14.891 2.922c-5.844 2.262-13.109 5.078-26.43 5.078-13.312 0-20.578-2.816-26.422-5.082-4.539-1.758-7.531-2.918-14.867-2.918-7.344 0-10.344 1.16-14.891 2.922-5.844 2.262-13.109 5.078-26.43 5.078-13.312 0-20.586-2.816-26.422-5.082-3.172-1.227-5.453-2.113-8.953-2.574-8.763-1.156-14.92-9.199-13.763-17.957 1.156-8.766 9.258-14.922 17.953-13.769 7.305.965 12.305 2.906 16.328 4.465 4.531 1.758 7.531 2.918 14.859 2.918 7.336 0 10.336-1.16 14.875-2.918 5.852-2.266 13.125-5.082 26.445-5.082s20.586 2.816 26.43 5.082c4.539 1.758 7.531 2.918 14.859 2.918 7.336 0 10.336-1.16 14.875-2.918 5.852-2.266 13.125-5.082 26.445-5.082s20.594 2.816 26.437 5.078c4.547 1.762 7.547 2.922 14.891 2.922s10.344-1.16 14.891-2.922c5.844-2.262 13.117-5.078 26.445-5.078 13.32 0 20.594 2.816 26.437 5.078 4.547 1.762 7.547 2.922 14.891 2.922 7.352 0 10.352-1.164 14.898-2.922 5.844-2.262 13.125-5.078 26.445-5.078s20.594 2.816 26.437 5.078c4.547 1.762 7.547 2.922 14.891 2.922s10.352-1.164 14.898-2.922c5.844-2.262 13.125-5.078 26.453-5.078 13.336 0 20.617 2.816 26.461 5.078 4.555 1.758 7.57 2.922 14.93 2.922 7.359 0 10.367-1.164 14.922-2.922 4.031-1.562 9.055-3.504 16.383-4.461 8.656-1.164 16.797 5.02 17.945 13.785 1.148 8.762-5.023 16.793-13.789 17.941-3.523.461-5.82 1.352-9 2.582-5.853 2.262-13.134 5.074-26.462 5.074z" fill="#00c3ff"/><path d="m504.5 296.366c-11.767 0-17.968 2.397-23.439 4.513-4.862 1.88-9.062 3.503-18.03 3.503-8.074 0-12.284-1.317-16.591-2.951 30.866-17.984 46.82-43.273 54.963-62.817 10.477-25.145 10.597-46.094 10.597-46.974 0-2.499-1.245-4.834-3.32-6.227-2.075-1.392-4.708-1.661-7.02-.714-57.914 23.692-140.025 38.758-240.062 44.264l71.975-71.975c2.929-2.929 2.929-7.678 0-10.606-2.929-2.929-7.678-2.929-10.606 0l-83.636 83.635c-16.041.641-32.503 1.05-49.374 1.217-100.656.995-180.913-6.896-181.711-6.976-2.28-.226-4.536.598-6.13 2.242s-2.35 3.926-2.052 6.196c.211 1.607 4.634 34.369 18.018 64.456-2.978-.482-6.427-.786-10.581-.786-4.142 0-7.5 3.358-7.5 7.5s3.358 7.5 7.5 7.5c8.938 0 13.124 1.623 17.971 3.501 5.46 2.117 11.648 4.515 23.392 4.515 11.752 0 17.945-2.398 23.41-4.514 4.853-1.879 9.043-3.502 17.993-3.502 8.942 0 13.13 1.623 17.979 3.501 5.461 2.116 11.651 4.515 23.398 4.515 11.751 0 17.944-2.398 23.408-4.514 4.852-1.879 9.042-3.502 17.99-3.502 8.953 0 13.146 1.623 18 3.502 5.466 2.116 11.661 4.514 23.416 4.514s17.95-2.398 23.415-4.514c4.854-1.879 9.047-3.502 18-3.502s13.146 1.623 18.001 3.502c5.466 2.116 11.661 4.514 23.416 4.514 11.757 0 17.954-2.398 23.42-4.514 4.856-1.879 9.05-3.502 18.007-3.502 8.95 0 13.141 1.623 17.994 3.502 5.464 2.116 11.658 4.514 23.411 4.514 11.76 0 17.958-2.398 23.426-4.513 4.858-1.879 9.054-3.503 18.014-3.503 8.968 0 13.168 1.624 18.03 3.503 5.471 2.115 11.672 4.513 23.439 4.513s17.968-2.397 23.439-4.513c4.862-1.88 9.062-3.503 18.03-3.503 4.142 0 7.5-3.358 7.5-7.5s-3.358-7.5-7.5-7.5zm-354.866 4.514c-4.852 1.879-9.042 3.502-17.991 3.502-8.942 0-13.13-1.623-17.979-3.501-5.462-2.116-11.652-4.515-23.399-4.515-11.752 0-17.945 2.398-23.41 4.514-4.853 1.879-9.043 3.502-17.993 3.502-4.708 0-8.092-.453-10.954-1.153-5.443-9.546-9.734-20.24-13.058-30.428 23.965 1.867 70.314 4.866 126.86 5.475h.082c4.104 0 7.454-3.305 7.498-7.419.044-4.142-3.277-7.536-7.419-7.58-60.957-.656-109.951-4.109-131.494-5.881-1.734-6.749-3.001-12.752-3.873-17.342 24.49 2.055 92.427 6.979 173.435 6.18 11.491-.113 22.761-.335 33.828-.655l-19.348 19.348c-3.21-1.44-6.764-2.074-10.365-1.776-6.188.512-11.807 3.704-15.416 8.756l-18.305 25.627c-4.356.891-7.643 2.163-10.699 3.346zm52.222-16.218c-.087 1.049-.531 3.021-2.526 4.447l-12.212 8.723c-2.235-.522-4.763-.945-7.704-1.2l11.433-16.006c1.425-1.996 3.398-2.439 4.447-2.526 1.047-.086 3.067.026 4.802 1.76 1.733 1.734 1.846 3.753 1.76 4.802zm196.279 16.217c-4.858 1.88-9.054 3.503-18.014 3.503-8.95 0-13.141-1.623-17.995-3.502-5.464-2.116-11.658-4.514-23.41-4.514-11.758 0-17.954 2.398-23.421 4.514-4.856 1.879-9.05 3.502-18.006 3.502-8.953 0-13.146-1.623-18.001-3.502-5.466-2.116-11.661-4.514-23.416-4.514s-17.95 2.398-23.416 4.514c-4.854 1.879-9.047 3.502-18 3.502-3.952 0-6.975-.317-9.539-.832l3.129-2.235c5.053-3.609 8.245-9.228 8.757-15.416.228-2.754-.089-5.483-.895-8.052 80.985-2.007 151.644-9.578 210.051-22.52 4.044-.896 6.596-4.9 5.7-8.945-.896-4.044-4.904-6.594-8.945-5.7-54.448 12.063-119.868 19.39-194.651 21.813l17.705-17.705c103.679-4.419 187.596-18.409 250.145-41.746-.727 4.779-1.944 10.795-3.97 17.521-11.651 4.386-24.264 8.493-37.564 12.217-3.989 1.117-6.317 5.255-5.2 9.244.927 3.313 3.939 5.48 7.218 5.48.669 0 1.35-.09 2.026-.28 9.104-2.549 17.908-5.275 26.327-8.147-12.696 26.359-33.5 45.611-61.937 57.3-.415-.006-.823-.016-1.253-.016-11.759.003-17.956 2.401-23.425 4.516z"/><path d="m421.562 328.43c-11.76 0-17.958 2.398-23.426 4.513-4.858 1.88-9.054 3.503-18.014 3.503-8.95 0-13.142-1.623-17.995-3.502-5.464-2.116-11.658-4.514-23.41-4.514-11.758 0-17.954 2.398-23.421 4.514-4.856 1.879-9.05 3.502-18.006 3.502-8.954 0-13.146-1.623-18.001-3.502-5.466-2.116-11.661-4.514-23.416-4.514s-17.95 2.398-23.416 4.514c-4.854 1.879-9.047 3.502-18 3.502s-13.146-1.623-18-3.502c-5.466-2.116-11.661-4.514-23.416-4.514-11.751 0-17.943 2.398-23.407 4.514-4.852 1.879-9.042 3.502-17.991 3.502-8.942 0-13.13-1.623-17.979-3.501-5.461-2.116-11.652-4.515-23.398-4.515-4.142 0-7.5 3.358-7.5 7.5s3.358 7.5 7.5 7.5c8.942 0 13.13 1.623 17.979 3.501 5.461 2.116 11.651 4.515 23.398 4.515 11.751 0 17.944-2.398 23.408-4.514 4.852-1.879 9.042-3.502 17.99-3.502 8.953 0 13.146 1.623 18 3.502 5.466 2.116 11.661 4.514 23.416 4.514s17.95-2.398 23.415-4.514c4.855-1.879 9.047-3.502 18-3.502s13.146 1.623 18.001 3.502c5.466 2.116 11.661 4.514 23.416 4.514 11.757 0 17.954-2.398 23.42-4.514 4.856-1.879 9.05-3.502 18.007-3.502 8.95 0 13.141 1.623 17.994 3.502 5.464 2.116 11.658 4.514 23.411 4.514 11.76 0 17.958-2.398 23.426-4.513 4.858-1.88 9.054-3.503 18.014-3.503 4.142 0 7.5-3.358 7.5-7.5s-3.357-7.5-7.499-7.5z"/></svg>